<?xml version="1.0" standalone="no"?>
<!DOCTYPE svg PUBLIC "-//W3C//DTD SVG 20010904//EN"
 "http://www.w3.org/TR/2001/REC-SVG-20010904/DTD/svg10.dtd">
<svg version="1.0" xmlns="http://www.w3.org/2000/svg"
 width="1280.000000pt" height="1280.000000pt" viewBox="0 0 1280.000000 1280.000000"
 preserveAspectRatio="xMidYMid meet">

<g transform="translate(0.000000,1280.000000) scale(0.100000,-0.100000)"
fill="#000000" stroke="none">
<path d="M5242 8624 c-29 -14 -64 -40 -77 -58 -58 -76 -55 -12 -55 -1164 l0
-1058 33 -54 c36 -61 102 -109 164 -119 21 -3 322 -5 670 -3 l632 3 7 22 c4
12 20 34 36 49 l30 28 -217 0 c-308 0 -315 4 -315 191 l0 117 35 31 36 31 250
0 c275 0 295 -4 324 -60 20 -38 20 -188 1 -234 -8 -18 -24 -41 -37 -50 -22
-15 -15 -16 131 -16 149 0 157 -1 192 -25 21 -14 41 -38 47 -57 l11 -33 182 1
c167 0 187 2 223 21 57 31 103 76 125 125 19 42 20 76 20 1087 0 772 -3 1054
-12 1083 -15 51 -77 121 -131 147 -43 21 -49 21 -1148 21 l-1105 0 -52 -26z
m2254 -125 c38 -32 44 -63 44 -247 0 -105 -5 -192 -11 -211 -23 -64 39 -61
-1129 -61 l-1062 0 -29 29 -29 29 0 207 c0 128 4 214 11 226 27 51 -6 50 1132
45 839 -3 1061 -7 1073 -17z m-1590 -793 l34 -34 0 -106 c0 -120 -12 -156 -60
-181 -24 -12 -74 -15 -272 -15 -223 0 -246 2 -275 20 -17 10 -36 28 -42 38
-16 31 -18 224 -3 253 30 56 45 58 326 59 l258 0 34 -34z m844 18 c48 -29 60
-62 60 -167 0 -81 -3 -99 -23 -128 -38 -57 -49 -59 -312 -59 -256 0 -272 3
-306 50 -15 21 -19 45 -20 140 l-1 114 36 33 36 33 251 0 c214 0 255 -2 279
-16z m755 -15 l35 -31 0 -119 0 -118 -35 -36 -36 -35 -185 0 c-262 0 -274 9
-274 196 l0 106 34 34 34 34 196 0 195 0 36 -31z m-1599 -555 l34 -35 0 -105
c0 -118 -12 -154 -60 -179 -38 -20 -501 -22 -539 -2 -54 28 -66 59 -66 179 l0
110 37 34 38 34 261 0 262 0 33 -36z m865 0 c33 -34 34 -37 37 -133 4 -113 -8
-149 -61 -181 -29 -18 -52 -20 -270 -20 -325 0 -327 1 -327 188 l0 114 34 34
34 34 259 0 259 0 35 -36z m723 15 c14 -11 31 -29 37 -40 7 -13 10 -149 9
-396 -1 -413 0 -411 -62 -446 -25 -14 -57 -17 -199 -17 -189 0 -215 6 -249 63
-19 30 -20 53 -20 411 l0 378 34 34 34 34 195 0 c182 0 196 -1 221 -21z
m-1614 -544 c52 -27 60 -49 60 -166 0 -93 -3 -110 -21 -133 -42 -53 -58 -56
-316 -56 -221 0 -240 2 -271 20 -50 31 -65 77 -60 185 4 96 17 127 60 152 36
20 509 18 548 -2z"/>
<path d="M4515 6028 c-3 -57 -5 -308 -3 -558 l3 -455 125 0 125 0 3 558 2 557
-124 0 -124 0 -7 -102z"/>
<path d="M6750 5570 l0 -560 125 0 125 0 0 560 0 560 -125 0 -125 0 0 -560z"/>
<path d="M2917 6064 c-94 -23 -167 -63 -238 -134 -73 -72 -110 -133 -138 -224
-63 -204 -14 -414 128 -555 176 -175 429 -212 654 -94 67 35 188 138 186 158
0 6 -26 29 -57 53 -31 23 -72 54 -90 69 l-33 26 -46 -46 c-65 -65 -122 -90
-208 -91 -170 -2 -289 125 -290 309 0 130 57 230 163 282 46 23 69 27 127 26
87 -1 149 -26 208 -86 l44 -43 92 80 92 81 -58 55 c-70 66 -157 114 -244 135
-79 18 -215 18 -292 -1z"/>
<path d="M8140 5920 l0 -110 -60 0 -60 0 0 -105 0 -105 59 0 60 0 3 -222 3
-223 30 -49 c21 -34 47 -58 85 -80 51 -29 62 -31 145 -30 68 0 104 6 148 23
62 24 62 24 48 67 -6 16 -15 55 -21 86 -10 52 -13 57 -30 48 -10 -6 -39 -10
-65 -10 -35 0 -51 6 -70 25 -25 24 -25 27 -25 195 l0 170 95 0 96 0 -3 103 -3
102 -92 3 -93 3 0 109 0 110 -125 0 -125 0 0 -110z"/>
<path d="M3915 5820 c-81 -10 -139 -26 -205 -60 -100 -51 -98 -44 -39 -135 29
-44 53 -81 55 -83 1 -2 26 9 56 24 68 35 196 46 246 20 36 -19 62 -62 62 -103
l0 -28 -142 0 c-112 0 -155 -4 -197 -18 -111 -38 -164 -106 -164 -212 0 -107
63 -190 170 -221 105 -30 208 -5 293 73 22 19 40 31 41 27 0 -5 0 -28 -1 -51
l-2 -43 126 0 126 0 0 263 c0 289 -8 349 -58 421 -68 99 -202 144 -367 126z"/>
<path d="M5266 5819 c-74 -11 -171 -55 -224 -103 -54 -49 -109 -156 -124 -244
-23 -134 24 -275 121 -364 170 -156 418 -155 591 1 30 27 53 51 50 53 -3 2
-39 32 -82 67 l-76 62 -58 -38 c-50 -33 -65 -38 -114 -38 -109 1 -180 77 -180
193 0 76 31 138 86 169 67 39 172 26 218 -26 11 -11 23 -21 29 -21 5 0 43 30
86 67 42 37 78 69 80 70 13 9 -82 88 -134 113 -51 25 -165 53 -200 49 -5 -1
-37 -5 -69 -10z"/>
<path d="M9030 5819 c-95 -14 -178 -58 -243 -129 -80 -86 -101 -146 -102 -285
0 -103 2 -114 31 -175 90 -186 300 -279 509 -225 310 81 423 447 210 683 -55
61 -108 94 -185 116 -78 21 -145 26 -220 15z m164 -234 c77 -37 116 -151 85
-246 -40 -118 -166 -163 -268 -96 -65 43 -98 151 -71 232 14 42 64 103 94 115
35 14 126 11 160 -5z"/>
<path d="M10109 5816 c-60 -21 -108 -55 -144 -103 l-35 -46 0 72 0 71 -120 0
-120 0 0 -400 0 -400 124 0 125 0 3 238 c3 230 4 238 26 270 44 61 151 93 235
69 l27 -7 1 87 c0 49 3 101 5 117 3 18 0 32 -8 37 -19 13 -78 10 -119 -5z"/>
<path d="M7408 5804 c-54 -13 -135 -48 -185 -81 -19 -13 -21 -18 -12 -36 19
-34 101 -142 108 -141 3 0 29 11 56 24 38 19 71 25 138 28 l88 4 34 -37 c27
-28 35 -45 35 -73 l0 -37 -147 0 c-161 0 -213 -12 -281 -63 -96 -72 -105 -220
-21 -316 98 -112 284 -113 406 -2 22 20 43 36 47 36 3 0 6 -22 6 -50 l0 -50
121 0 120 0 -3 289 -3 288 -35 69 c-41 79 -94 126 -172 149 -64 19 -221 19
-300 -1z"/>
<path d="M5777 5803 c-11 -11 -8 -512 4 -579 16 -91 60 -159 129 -198 51 -29
62 -31 150 -31 106 0 143 13 214 79 21 20 40 36 42 36 2 0 4 -22 4 -50 l0 -50
120 0 120 0 0 400 0 400 -125 0 -124 0 -3 -249 c-3 -235 -4 -251 -24 -278 -51
-68 -121 -89 -190 -57 -64 31 -69 52 -70 304 0 124 -1 237 -2 253 l-2 27 -118
0 c-65 0 -122 -3 -125 -7z"/>
</g>
</svg>
